<svg xmlns="http://www.w3.org/2000/svg" viewBox="0 0 237.5 146.71"><defs><style>.cls-1
{fill:none;stroke:#000;stroke-miterlimit:10;}.cls-2{fill:#492527;}</style>
</defs><title>Asset 1</title>
<g id="Layer_2" data-name="Layer 2">
<g id="espresso">
<path id="inside1" class="cls-1" d="M2.18,5.32s5,0,8.38,16.77S20.63,75.77,20.63,75.77,39.08,106,65.91,117.7c0,0,18.46,10.06,31.87,10.06s50.32-18.45,62.06-35.22c0,0,16.78-20.13,16.78-31.87l5-35.22S185,3.64,190,5.32s1.67,20.13,1.67,20.13,16.78-10.07,26.84-8.39S237,25.45,237,40.54s-36.9,41.94-36.9,41.94L181.65,99.25s-1.68-3.36-5-3.36S166.55,106,166.55,106l-31.87,23.48a7.35,7.35,0,0,1,1.68,5c0,3.36-6.71,11.74-40.25,11.74s-40.26-5-40.26-10.06,3.36-6.71,3.36-6.71S25.66,109.31,17.27,97.57.5,69.06.5,47.25,2.18,5.32,2.18,5.32Z"/><path class="cls-1" d="M191.71,32.16l-5,40.25S220.23,54,225.26,45.57s-1.68-21.8-13.42-21.8S191.71,32.16,191.71,32.16Z"/>
<path id="inside2" class="cls-2" d="M24,6.52s103.94-14.67,145.51,0c0,0,22.52,91.71-65.83,108.21S17.06,21.19,24,6.52Z"/></g></g></svg>