<svg xmlns="http://www.w3.org/2000/svg" viewBox="0 0 237.5 187.53"><defs><style>.cls-1{fill:none;stroke:#000;}.cls-1,.cls-3{stroke-miterlimit:10;}.cls-2{fill:#492527;}.cls-3{fill:#f7f7f2;stroke:#c7c7c7;}</style></defs><title>Asset 2</title><g id="Layer_2" data-name="Layer 2"><g id="espresso"><path class="cls-1" d="M2.18,46.14s5,0,8.38,16.77,10.07,53.68,10.07,53.68,18.45,30.19,45.28,41.93c0,0,18.46,10.06,31.87,10.06s50.32-18.45,62.06-35.22c0,0,16.78-20.13,16.78-31.87l5-35.22S185,44.46,190,46.14s1.67,20.13,1.67,20.13,16.78-10.07,26.84-8.39S237,66.27,237,81.36s-36.9,41.94-36.9,41.94l-18.45,16.77s-1.68-3.36-5-3.36-10.07,10.07-10.07,10.07l-31.87,23.48a7.35,7.35,0,0,1,1.68,5c0,3.36-6.71,11.74-40.25,11.74S55.85,182,55.85,177s3.36-6.71,3.36-6.71-33.55-20.13-41.94-31.87S.5,109.88.5,88.07,2.18,46.14,2.18,46.14Z"/><path class="cls-1" d="M191.71,73l-5,40.25s33.55-18.45,38.58-26.83-1.68-21.81-13.42-21.81S191.71,73,191.71,73Z"/><path class="cls-2" d="M24,48.34s103.94-14.67,145.51,0c0,0,22.52,91.71-65.83,108.22S17.06,63,24,48.34Z"/><path class="cls-3" d="M104.7,55.85s-56.48,15.69-72.17,0c0,0-4.71-7.84,22-7.84C54.5,48,31,44.87,31,38.59s25.1-7.84,25.1-7.84-12.55-3.14-9.41-7.85,18.83-4.7,18.83-4.7,20.4-11,20.4-15.69,22-1.57,25.1,14.12c0,0,40.79,3.13,40.79,14.12s-15.69,11-15.69,11,25.11,3.14,20.4,9.41S114.12,63.7,104.7,55.85Z"/></g></g></svg>