<svg xmlns="http://www.w3.org/2000/svg" viewBox="0 0 299.94 338.99"><defs><style>.cls-1{fill:none;stroke:#000;}.cls-1,.cls-5{stroke-miterlimit:10;}.cls-2{fill:#872e32;}.cls-3{fill:#c7c7c7;}.cls-4{fill:#4b2628;}.cls-5{fill:#f7f7f2;stroke:#c7c7c7;}</style></defs><title>Asset 1</title><g id="Layer_2" data-name="Layer 2"><g id="cafe_mocha" data-name="cafe mocha"><path class="cls-1" d="M.92,20.91s56.59,299.91,63.67,307,150,19.81,169.76,0l65.07-307s-4.24-18.39-24,66.49-50.93,229.18-50.93,229.18,2.83,2.83-19.81,9.9c0,0-108.93,2.83-125.91-7.07C78.73,319.41,23.56,53.44.92,20.91Z"/><path class="cls-2" d="M62.92,253.5s18.53,57.29,26.24,61.78,126.57,0,126.57,0l24.69-61.78Z"/><polygon class="cls-3" points="21.37 84 55.06 190.93 246.36 190.93 281.43 75.5 19.43 75.5 21.37 84"/><polygon class="cls-4" points="62.37 253.5 239.47 253.5 248.43 194.5 52.42 194.5 62.37 253.5"/><path class="cls-5" d="M172.29,92S56.73,117.91,24.63,92c0,0-9.63-13,44.94-13,0,0-48.15-5.19-48.15-15.56s51.36-13,51.36-13-25.68-5.19-19.26-13S92,29.74,92,29.74s41.73-18.15,41.73-25.93,44.94-2.59,51.36,23.34c0,0,83.46,5.19,83.46,23.34s-32.1,18.15-32.1,18.15,51.36,5.18,41.73,15.56S191.55,104.94,172.29,92Z"/></g></g></svg>