<svg xmlns="http://www.w3.org/2000/svg" viewBox="0 0 299.94 320.49"><defs><style>.cls-1{fill:none;stroke:#000;stroke-miterlimit:10;}.cls-2{fill:#4b2628;}.cls-3{fill:#c7c7c7;}.cls-4{fill:#ffecb6;}</style></defs><title>Asset 4</title><g id="Layer_2" data-name="Layer 2"><g id="cafe_latte" data-name="cafe latte"><path class="cls-1" d="M.92,2.41s56.59,299.91,63.67,307,150,19.81,169.76,0l65.07-307s-4.24-18.39-24,66.49-50.93,229.18-50.93,229.18,2.83,2.83-19.81,9.9c0,0-108.93,2.83-125.91-7.07C78.73,300.91,23.56,34.94.92,2.41Z"/><path class="cls-2" d="M61.92,215s18.53,80.64,26.24,87,126.57,0,126.57,0l24.69-87Z"/><polygon class="cls-3" points="14.43 28 284.99 28 238.43 211 64.42 211 14.43 28"/><polygon class="cls-4" points="2.42 0 293.43 0 284.43 26 12.99 26 2.42 0"/></g></g></svg>