<svg xmlns="http://www.w3.org/2000/svg" viewBox="0 0 299.94 320.29"><defs><style>.cls-1{fill:none;stroke:#000;stroke-miterlimit:10;}.cls-2{fill:#4b2628;}.cls-3{fill:#fcf23d;}.cls-4{fill:#c7c7c7;}</style></defs><title>Asset 10</title><g id="Layer_2" data-name="Layer 2"><g id="cortado"><path class="cls-1" d="M.92,2.21s56.59,299.91,63.67,307,150,19.81,169.76,0l65.07-307s-4.24-18.4-24,66.49-50.93,229.18-50.93,229.18,2.83,2.83-19.81,9.9c0,0-108.93,2.83-125.91-7.07C78.73,300.71,23.56,34.74.92,2.21Z"/><path class="cls-2" d="M63.92,213.8s18.53,80.64,26.24,87,126.57,0,126.57,0l24.69-87Z"/><polygon class="cls-3" points="5.42 1.8 290.43 1.8 274.43 57.8 31.43 57.8 5.42 1.8"/><polygon class="cls-4" points="33.22 72.8 64.34 211.23 241.04 211.23 273.43 61.8 31.43 61.8 33.22 72.8"/></g></g></svg>