<svg xmlns="http://www.w3.org/2000/svg" viewBox="0 0 299.94 320.29"><defs><style>.cls-1{fill:none;stroke:#000;stroke-miterlimit:10;}.cls-2{fill:#492527;}.cls-3{fill:#c8c8c8;}.cls-4{fill:#ffebb6;}</style></defs><title>Asset 5</title><g id="Layer_2" data-name="Layer 2"><g id="cappuccino"><path class="cls-1" d="M.92,2.21s56.59,299.91,63.67,307,150,19.81,169.76,0l65.07-307s-4.24-18.4-24,66.49-50.93,229.18-50.93,229.18,2.83,2.83-19.81,9.9c0,0-108.93,2.83-125.91-7.07C78.73,300.71,23.56,34.74.92,2.21Z"/><polygon class="cls-2" points="67.42 238.67 229.43 238.67 216.45 300.8 87.74 300.8 67.42 238.67"/><polygon class="cls-3" points="45.42 110.8 260.43 110.8 232.43 235.8 69.42 235.8 45.42 110.8"/><polygon class="cls-4" points="8.43 1.8 292.6 1.8 260.43 104.8 47.42 104.8 8.43 1.8"/></g></g></svg>