<svg xmlns="http://www.w3.org/2000/svg" viewBox="0 0 299.94 320.29"><defs><style>.cls-1{fill:#c6d256;}.cls-2{fill:#4b2628;}.cls-3{fill:none;stroke:#000;stroke-miterlimit:10;}</style></defs><title>Asset 9</title><g id="Layer_2" data-name="Layer 2"><g id="affogato"><path class="cls-1" d="M145.14,111.14c.21-.58-.6-1.37-.69-1.92s.61-.89,3.53-.47a42.53,42.53,0,0,1,7.21,2,22.2,22.2,0,0,1,4.75,2.48,8,8,0,0,1,2,2.16,2.35,2.35,0,0,1,.13,1.18c-.16.24.05,1.12.38,3.26s.71,5.35,1.3,9.76c.69.45,1.39,1,2.09,1.43a61.61,61.61,0,0,1-.25,10.18A13.33,13.33,0,0,1,165,144a2.57,2.57,0,0,1-.77,1.28,11.66,11.66,0,0,1-2.09,1.77,24.48,24.48,0,0,1-4.6,2.45,38.13,38.13,0,0,1-13.88,4.3l-1,.11c-.32,0-.65.08-1,.1-.73,0-1.46.11-2.17.13-1.44.08-2.82,0-4.18,0a40.86,40.86,0,0,1-7.32-.91,24.67,24.67,0,0,1-5.38-1.86c-.38-.17-.68-.38-1-.55s-.64-.35-.91-.61a11.17,11.17,0,0,1-.91-.67c-.28-.28-.61-.47-.91-.78a22.53,22.53,0,0,1-3.65-4.51,38.83,38.83,0,0,1-3.34-6.83c-.24.38-.49.7-.8.67s-.72-.4-1.19-1.49a45.89,45.89,0,0,1-2.25-8.16c-.29-1.57-.55-3.21-.75-4.94-.11-.86-.15-1.7-.24-2.57s-.13-1.74-.15-2.62a61.61,61.61,0,0,1,2.34-20.52,24.23,24.23,0,0,1,.68-2.61l.36-1.25c.13-.39.29-.75.43-1.13a2.9,2.9,0,0,0-.59-2.27c.32-.52.57-1.1.9-1.55s.65-.9.94-1.36a20.94,20.94,0,0,1,2-2.16,21.77,21.77,0,0,1,2-1.7,23.75,23.75,0,0,1,2.23-1.32c.3-.2.56-.44.88-.64s.67-.38,1-.58l.49-.31.57-.26,1.12-.56c.38-.19.83-.33,1.24-.5a11.7,11.7,0,0,1,1.3-.5c1-.28,1.82-.65,2.88-.87a68.32,68.32,0,0,1,14.21-2c5.34-.27,11.13-.19,17.27.06s11.87.59,17,1.29a53.48,53.48,0,0,1,12.94,3.16A23.26,23.26,0,0,1,193,83.08a18.84,18.84,0,0,1,3.57,3,40.29,40.29,0,0,1,6.74,11.25c1.07,2.45,2.09,5.16,3.12,8.06s2.13,6.12,3.09,9a87.53,87.53,0,0,1,4,15.41,30.78,30.78,0,0,1,.26,5.93,21.74,21.74,0,0,1-.32,2.57,23.24,23.24,0,0,1-.74,2.75c-1.28,3.86-3.93,8.46-7.43,13.38a98.52,98.52,0,0,1-11,13.29,57.39,57.39,0,0,1-12.62,9.66,47.55,47.55,0,0,1-14.73,5.05c-10.66,1.86-22.65.49-33.88-3.73a75.63,75.63,0,0,1-14-6.27,89.48,89.48,0,0,1-13-9.18A115.83,115.83,0,0,1,84.6,138.72a162.9,162.9,0,0,1-11.92-22.86,79.83,79.83,0,0,1-4.17-12.22,46.86,46.86,0,0,1-1.09-6A35.28,35.28,0,0,1,67.27,92a22.86,22.86,0,0,1,2.84-9.86,30.39,30.39,0,0,1,7-8.12,60.59,60.59,0,0,1,9.73-6.54c1.72-1,3.58-1.83,5.35-2.71s3.59-1.63,5.33-2.42c-.88-.55-.61-1.56.56-2.92a19.52,19.52,0,0,1,2.44-2.15,33.89,33.89,0,0,1,3.63-2.49c5.53-3.48,13.88-7.08,22.32-9.71s16.87-4.5,22.18-6c2.65-.8,4.52-1.47,5.21-2.24s.18-1.59-1.93-2.49c5.79,0,12.28.37,18.77,1l4.85.56c1.62.18,3.21.41,4.79.65,3.15.45,6.22.93,9.15,1.5,5.85,1.09,11.1,2.42,15,3.52,2,.57,3.59,1,4.81,1.34a6.1,6.1,0,0,0,2.36.32c1.92-.73,4.71-1.19,8.94-.5a26.55,26.55,0,0,1,3.44.77,35.45,35.45,0,0,1,4,1.38,45.17,45.17,0,0,1,4.57,2.18,43.83,43.83,0,0,1,5,3.24,46.24,46.24,0,0,1,5.3,4.39c.88.84,1.8,1.73,2.72,2.67s1.72,2,2.61,3.05l1.34,1.64c.43.56.83,1.15,1.24,1.74.83,1.18,1.68,2.42,2.52,3.71a85.6,85.6,0,0,1,4.45,8.38,99.78,99.78,0,0,1,6.62,20A159.14,159.14,0,0,1,267.7,119c.17,3.19.23,6.52.22,9.92l0,2.54-.06,2.66c0,.93-.07,1.86-.1,2.8s-.11,1.92-.16,2.89c-.27,3.91-.63,7.95-1.32,12.17L266,153.5l-.31,1.6c-.21,1.07-.4,2.12-.63,3.19-.53,2.19-1,4.29-1.7,6.5-.35,1.1-.61,2.13-1,3.24s-.8,2.18-1.2,3.25-.93,2.18-1.39,3.23-.92,2.09-1.52,3.16l-1.7,3.09c-.54,1-1.27,2-1.9,3s-1.25,1.9-2,2.82-1.45,1.79-2.16,2.64a55.31,55.31,0,0,1-8.81,8.23,40.18,40.18,0,0,1-3.84,2.65l-3,1.92c-2.64,1.87-2.18,2.19-.16,1.73l.82-.2a.38.38,0,0,0,.13,0l.21-.09.44-.19.93-.41c1.27-.57,2.68-1.26,4.16-2s3-1.84,4.5-2.89l1.16-.81c.37-.28.72-.58,1.08-.87.73-.6,1.45-1.21,2.17-1.83A74.21,74.21,0,0,0,262,180.64a19.44,19.44,0,0,1,1.28-1.66c.31-.36.49-.48.58-.37s-.18,1.52-1.36,4.21a82.54,82.54,0,0,0,8.58-24.16,141.53,141.53,0,0,0,2.36-20.44c.1-1.61.12-3.1.18-4.66l.1-4.3c0-1.4,0-2.89,0-4.34l0-2.19,0-2.24c0-6-.25-12.17-.91-18.69a139.76,139.76,0,0,0-3.47-20.38A97.89,97.89,0,0,0,261,59.63a82.51,82.51,0,0,0-15.37-20.54A84.6,84.6,0,0,0,225,24.6,96.92,96.92,0,0,0,214.53,20c-3.46-1.3-6.84-2.35-10.15-3.27a161.34,161.34,0,0,0-19-4,209,209,0,0,0-37-2.54,186.39,186.39,0,0,0-37.63,4.52A161.77,161.77,0,0,0,74,27.83,114.7,114.7,0,0,0,55.63,38.92a83.46,83.46,0,0,0-9.49,8.23A70.19,70.19,0,0,0,37.2,58.22,64.48,64.48,0,0,0,33.38,65c-.6,1.17-1.1,2.39-1.62,3.61s-1,2.45-1.37,3.7a66.11,66.11,0,0,0-2.08,7.62,70.23,70.23,0,0,0-.83,21.4,86.18,86.18,0,0,0,2.24,12.09A109.63,109.63,0,0,0,33,123.87c1.19,3.26,2.46,6.35,3.74,9.23.65,1.5,1.27,2.77,1.91,4.17s1.27,2.73,2,4.09c1.31,2.72,2.74,5.43,4.16,8.14A191.46,191.46,0,0,0,65.82,181c2.06,2.52,4.3,5,6.54,7.41s4.65,4.78,7.17,7.07a135.31,135.31,0,0,0,16.1,12.81,125.11,125.11,0,0,0,18.8,10.39,120.79,120.79,0,0,0,20.49,6.84,106.47,106.47,0,0,0,21.94,2.9,98.51,98.51,0,0,0,22.93-1.87,96.34,96.34,0,0,0,22.67-7.65,101.46,101.46,0,0,0,19.36-12.54,136.4,136.4,0,0,0,12.4-12.43c2.3-2.6,4.67-5.47,7-8.57,1.19-1.55,2.37-3.13,3.61-4.86s2.54-3.63,3.87-5.7a90.94,90.94,0,0,0,8-15.26A71.45,71.45,0,0,0,260,149.41c.47-1.83.78-3.71,1.11-5.6s.52-3.78.61-5.63A83.23,83.23,0,0,0,260.42,117c-.58-3.27-1.3-6.34-2.07-9.29S256.77,102,256,99.33l-2.46-8c-.89-2.78-1.86-5.74-3-8.87s-2.48-6.48-4.09-10a88.7,88.7,0,0,0-5.91-10.86,75.08,75.08,0,0,0-8.62-11.09A71.16,71.16,0,0,0,220.56,41,80.28,80.28,0,0,0,208.07,34a96.58,96.58,0,0,0-12.45-4.38A117.83,117.83,0,0,0,183.74,27c-2-.36-3.8-.6-5.7-.88s-3.72-.48-5.5-.65c-3.65-.4-7.08-.67-10.52-.93-1.72-.12-3.44-.25-5.24-.35s-3.59-.2-5.43-.27a160.61,160.61,0,0,0-23.84.59,110.17,110.17,0,0,0-13.26,2.18l-3.46.89-1.73.47-1.76.57-3.5,1.17c-1.18.45-2.37.93-3.54,1.41A74,74,0,0,0,74.09,49.46L72.71,51c-.45.51-.86,1-1.28,1.56l-2.49,3.17c-.83,1.06-1.5,2.17-2.25,3.27s-1.47,2.2-2.1,3.32l-1.87,3.39-.91,1.7L61,69.08l-1.54,3.45c-.49,1.14-.89,2.29-1.33,3.44a102,102,0,0,0-5.85,27.21,132,132,0,0,0,.54,26,128,128,0,0,0,5.59,25.27,92.78,92.78,0,0,0,12.84,25.29,74.39,74.39,0,0,0,10.3,11.47L83,192.5c.5.43,1,.84,1.54,1.26,1,.82,2.07,1.65,3.13,2.43s2.18,1.5,3.28,2.24,2.23,1.35,3.35,2a82.3,82.3,0,0,0,27.28,9.41,95.57,95.57,0,0,0,13,1.24,111.14,111.14,0,0,0,12.42-.3,101.44,101.44,0,0,0,24.64-5.12,84.46,84.46,0,0,0,23.1-12.17A65.14,65.14,0,0,0,213.33,172c.57-1.09,1.15-2.17,1.66-3.28s.94-2.26,1.39-3.4a52.55,52.55,0,0,0,2.22-6.82,70.83,70.83,0,0,0,2-12.64,127.17,127.17,0,0,0-.37-19.3c-.11-1.28-.21-2.54-.31-3.79s-.25-2.7-.38-4c-.28-2.79-.66-5.79-1.24-9a75.51,75.51,0,0,0-2.51-10,60.75,60.75,0,0,0-4.53-10.5c-.73-1.24-1.48-2.47-2.24-3.66-.38-.59-.75-1.2-1.15-1.76l-1.25-1.65C205.8,81.06,205,80,204.11,79s-1.77-1.91-2.66-2.84-1.79-1.75-2.7-2.55S196.94,72,196,71.25l-2.68-2-1.33-1-1.31-.85a87.2,87.2,0,0,0-18.32-8.92c-4-1.37-7.67-2.35-11.31-3.24-4.06-1-8-1.83-11.77-2.56l-2.83-.53-2.85-.51c-1.95-.34-4.09-.68-6.37-1s-4.77-.55-7.38-.72c-1.35-.06-2.68-.13-4.12-.12-1.63,0-3.39.06-5.09.15a64.84,64.84,0,0,0-10.17,1.52,60.27,60.27,0,0,0-9.76,3.3A56.33,56.33,0,0,0,77.29,75.08c-.72,1.11-1.46,2.2-2.1,3.36l-1,1.72c-.32.58-.64,1.17-.89,1.7C72.79,83,72.29,84,71.82,85l-1.3,3.14a75.9,75.9,0,0,0-3.61,12.57c-.23,1.05-.4,2.11-.56,3.16S66,106,65.93,107c-.26,2-.39,4.09-.49,6.14a85.11,85.11,0,0,0,.38,12.26,80.92,80.92,0,0,0,2.23,12.16,73.53,73.53,0,0,0,4.21,11.86c.83,1.94,1.87,3.84,2.87,5.71s2.17,3.72,3.46,5.49a65,65,0,0,0,8.48,10c.83.79,1.68,1.56,2.53,2.32s1.75,1.42,2.63,2.12a61.49,61.49,0,0,0,16.94,9.29A61.44,61.44,0,0,0,133.6,188a54.51,54.51,0,0,0,23.8-6.82,51.41,51.41,0,0,0,11-8.41,53,53,0,0,0,8.45-11,53.83,53.83,0,0,0,.42-52.71,52.69,52.69,0,0,0-8.37-11.33A48.2,48.2,0,0,0,157.35,89a46.62,46.62,0,0,1,15.12,17.9,48.39,48.39,0,0,1,4.78,18.92,48.9,48.9,0,0,0-8.91-22.29A44,44,0,0,0,160,95a29.23,29.23,0,0,0-2.38-1.76c-.83-.53-1.62-1.1-2.48-1.57s-1.7-.94-2.55-1.38-1.79-.81-2.68-1.18a39.14,39.14,0,0,0-10.42-2.62,42,42,0,0,0-4.79-.27,43.4,43.4,0,0,0-4.39.28,36.51,36.51,0,0,0-12.9,3.92,37.33,37.33,0,0,0-10.38,7.31,22.24,22.24,0,0,0-1.94,2.08c-.59.72-1.16,1.4-1.68,2.11a33.57,33.57,0,0,0-2.6,4.26c-.36.71-.69,1.4-1,2.08s-.51,1.34-.73,2-.44,1.26-.6,1.85-.27,1.18-.39,1.73-.21,1.08-.31,1.59-.12,1-.16,1.45c-.07.93-.15,1.76-.14,2.51a21.58,21.58,0,0,0,.32,3.5,5.3,5.3,0,0,0,.64,1.71c.44.61.87.21,1.32-.86.22-.53.47-1.23.79-2.07s.59-1.81,1.08-2.86a29.22,29.22,0,0,1,1.56-3.39c.32-.59.6-1.2,1-1.8l1.2-1.81a26.31,26.31,0,0,1,6.38-6.34,26.66,26.66,0,0,1,7.68-3.66c.89-.31,1.66-.51,2.32-.68a11.54,11.54,0,0,1,1.69-.22,3.11,3.11,0,0,1,1.85.31c.69.45.52,1.18.61,1.83s.42,1.25,1.84,1.49,4,.22,8.37,1a24.26,24.26,0,0,0-8.49.73,22.58,22.58,0,0,0-6.64,3,18.36,18.36,0,0,0-5.06,5,16.81,16.81,0,0,0-2.75,7.68c.11.1.22,0,.32-.16a1.87,1.87,0,0,0,.15-.39c.07-.16.14-.35.22-.57a25.8,25.8,0,0,1,1.26-3.63,18.26,18.26,0,0,1,7.8-8.53,22.71,22.71,0,0,1,5.74-2.22,21.35,21.35,0,0,1,2.62-.39l1.15-.08,1,0,.86.06c.26,0,.48.1.68.15a1.81,1.81,0,0,1,.77.33c.24.24-.12.53-1.14.87-5.62-.55-12,1.81-15.57,6.22a13.47,13.47,0,0,0-1.24,1.68,7.08,7.08,0,0,0-.49.89,9.27,9.27,0,0,0-.45.89,16.15,16.15,0,0,0-.67,1.92l-.27,1-.16,1a18.88,18.88,0,0,0,.62,8.29,4.52,4.52,0,0,0,.14-1.12,14.28,14.28,0,0,0,.05-1.66,28.58,28.58,0,0,1,.47-4.5,15,15,0,0,1,1.92-4.85,14.4,14.4,0,0,1,3.93-4.06,17.16,17.16,0,0,1,5.29-2.45,16.11,16.11,0,0,1,5-.58c2.88.17,4.36,1,3.88,1.52a31.35,31.35,0,0,0-6.41-.17,17.75,17.75,0,0,0-4.43,1,14.17,14.17,0,0,0-4.1,2.19,10.26,10.26,0,0,0-4.15,6.63c0,.29-.1.56-.12.83v.79a4.3,4.3,0,0,0,.18,1.34,1.94,1.94,0,0,0,1,1.45c.35.15.21-2.08.86-4.49a13.11,13.11,0,0,1,1.5-3.28,14.49,14.49,0,0,1,2.41-2.55c-.27.28-.55.55-.84.8s-.46.59-.7.86l-.59.88c-.21.28-.27.58-.44.85a11,11,0,0,0-.92,3.73,12.93,12.93,0,0,0,.4,3.86,11.94,11.94,0,0,0,1.32,3.15,6.67,6.67,0,0,0,3.32,2.87c.21.14.49.08.68.14a.76.76,0,0,0,.52,0,2.39,2.39,0,0,0,.78-.26,2.1,2.1,0,0,0,.54-.46,1.19,1.19,0,0,0,.25-.53,1.32,1.32,0,0,0,0-.56,5.63,5.63,0,0,0-.18-.64,1.52,1.52,0,0,1-.1-.63s.13-.39,0-.11l-.06.12,0,.06c.43-.9.12-.25.21-.45h0v-.05l0-.19a4.75,4.75,0,0,0,0-.78c0-.35,0-.8-.08-1.4,0,.2.18.32.21.52a.76.76,0,0,1,.12.19l0,.12.06.06a.34.34,0,0,1,.06.16.12.12,0,0,1,.06.08.09.09,0,0,1,0,.07s0,0,0,0,0,0,0,.09,0,0,0,0l0,0v0l-.72,1.51h0l0,0a1.42,1.42,0,0,0,.08-.18,1.31,1.31,0,0,0,.05-.15c0-.05,0-.06.06-.2a3.46,3.46,0,0,0,.15-.62.78.78,0,0,1,0-.14l0-.11s0,0,0,0a0,0,0,0,1,0,0s0,.09.08.07.09,0,.15.08a.49.49,0,0,1,.24,0,3.84,3.84,0,0,0,2.41-.83c.18-.08.15-.18.28-.22s0,0,0,0h0l.18.08.26.15a3.45,3.45,0,0,0,.63.25l.33.12.19,0h0a4.47,4.47,0,0,1-1.43-.55l-.47-.24,0,0s-.11,0-.12,0-.11,0-.18.09a.22.22,0,0,0-.09.07s-.11,0-.16,0-.43.17-.63.29a1.07,1.07,0,0,0-.36.1c-.1.06-.24,0-.34.06l-.15,0h-.14c-.09,0-.18,0-.25,0s-.27,0-.3,0l0,0,.09,0c.06,0,.12,0,.2,0s.33,0,.52-.15.36-.16.57-.21.15-.12.24-.15l.14-.06.09-.09a2.25,2.25,0,0,1,.21-.12.18.18,0,0,1,.12-.12c.08,0,0-.07.06-.08h.06l.06.05a4.72,4.72,0,0,0,.78.45,3.26,3.26,0,0,0,.62.31l.32.12.17.06.21.06.12,0h0a1.21,1.21,0,0,1-.19,0,1.6,1.6,0,0,1-.26-.08s-.25-.09-.41-.15a3.14,3.14,0,0,1-.45-.23l-.28-.14-.3-.17a3.41,3.41,0,0,1-.52-.36,5.89,5.89,0,0,1-1.1-.88c-.14-.09-.08-.05-.17-.07s-.09,0-.21,0a3.1,3.1,0,0,1-.83.06,1.23,1.23,0,0,0,.62-.16s.13,0,.17-.08.07,0,.09,0v0c.09.1.29.27.43.39a5.42,5.42,0,0,0,1,.78,9,9,0,0,1-1.48-1.23c-.22-.21-.39-.45-.57-.64l-.24-.29c-.07-.1-.05-.09-.11-.17a2.7,2.7,0,0,1-.22-.31,2.4,2.4,0,0,1-.15-.27,2,2,0,0,1,.08.2c0,.11.1.29.16.53a9.56,9.56,0,0,1,.26,1.7,5.67,5.67,0,0,1,0,1,5.2,5.2,0,0,1-.08.92,3.23,3.23,0,0,0-.07.38,2.83,2.83,0,0,1-.07.36l-.16.49a1.65,1.65,0,0,1-.09.21l.77-1.62.05-.09s0,0,.09-.12a2.28,2.28,0,0,1,.32-.42,5.72,5.72,0,0,1,.51-.57c.15-.11.42-.41.63-.58l.71-.53a10.67,10.67,0,0,1,2.57-1.28c.59-.17.57-.1.19-.09a8.28,8.28,0,0,1-2-.2l-.6-.15a5.85,5.85,0,0,1-.6-.19,6.42,6.42,0,0,1-1-.42l-.32-.16-.17-.11-.09-.06,0,0h0l1.72,1.13h0l0,0a2.27,2.27,0,0,1,.34.26,10.16,10.16,0,0,1,2.25,2.83,8.87,8.87,0,0,1,.95,2.52,8.31,8.31,0,0,1,.09-1.3c.05-.26.08-.51.16-.8s.14-.57.24-.86l.17-.44a3.73,3.73,0,0,1,.15-.38l.1-.21.05-.1,0-.05v0c1-1.94-1.3,2.64-1.07,2.17h0v0a1.71,1.71,0,0,1-.14.27l-.34.56-.48.66-.52.6s0,0,0,.06a7,7,0,0,1,.31.71,3.72,3.72,0,0,1,.23,2,2.89,2.89,0,0,1-.36,1s-.06.06-.07.08,0,0,0,0l.41.24.12.07.11.07h0l0,0-.13-.08-.25-.17-.21-.16,0,0c-.05,0-.15,0-.18,0h0c-.15-.25,1.28,2.24.67,1.18h0l0-.06-.06-.11c0-.07-.06-.13-.08-.19l0-.09-.09-.19c-.06-.13-.1-.25-.14-.36s-.07-.25-.1-.31,0,0,0,0,0,0,0,0l-.08,0a5.69,5.69,0,0,1-1.14-.08,10.41,10.41,0,0,1-2-.63,7.25,7.25,0,0,1-1.85-1.1c-.15-.07-.2-.22-.33-.3s-.19-.19-.27-.28l-.14-.12-.19-.24a4.17,4.17,0,0,1-.4-.5,16.5,16.5,0,0,1-2.72-6.17,26.81,26.81,0,0,1-.48-9c.06-.39.11-.77.15-1.16l.19-1c.09-.32.15-.65.23-1s.17-.63.27-.93c.2-.6.4-1.16.61-1.65.12-.22.2-.5.32-.67s.16-.33.18-.31a.49.49,0,0,1,.34-.19c.06,0,.12,0,.18,0l.67,0c.72,0,1.63.1,2.67.22,2.09.24,4.78.7,7.92,1.27S142.49,110.55,145.14,111.14Z"/><path class="cls-2" d="M62.92,211.8s18.53,80.64,26.24,87,126.57,0,126.57,0l24.69-87Z"/><path class="cls-3" d="M.92,2.21s56.59,299.91,63.67,307,150,19.81,169.76,0l65.07-307s-4.24-18.4-24,66.49-50.93,229.18-50.93,229.18,2.83,2.83-19.81,9.9c0,0-108.93,2.83-125.91-7.07C78.73,300.71,23.56,34.74.92,2.21Z"/></g></g></svg>