<svg xmlns="http://www.w3.org/2000/svg" viewBox="0 0 299.94 391.63"><defs><style>.cls-1{fill:none;stroke:#000;}.cls-1,.cls-5{stroke-miterlimit:10;}.cls-2{fill:#872e32;}.cls-3{fill:#c7c7c7;}.cls-4{fill:#4b2628;}.cls-5{fill:#f7f7f2;stroke:#c7c7c7;}</style></defs><title>Asset 7</title><g id="Layer_2" data-name="Layer 2"><g id="cafe_mocha" data-name="cafe mocha"><path class="cls-1" d="M.92,73.55s56.59,299.91,63.67,307,150,19.81,169.76,0l65.07-307s-4.24-18.4-24,66.49-50.93,229.18-50.93,229.18,2.83,2.83-19.81,9.9c0,0-108.93,2.83-125.91-7.07C78.73,372.05,23.56,106.08.92,73.55Z"/><path class="cls-2" d="M62.92,306.14s18.53,57.29,26.24,61.78,126.57,0,126.57,0l24.69-61.78Z"/><polygon class="cls-3" points="17.43 106.14 52.01 244.57 248.43 244.57 284.43 95.14 15.43 95.14 17.43 106.14"/><polygon class="cls-4" points="62.37 306.14 239.47 306.14 248.43 247.14 52.42 247.14 62.37 306.14"/><path class="cls-5" d="M170.06,107.64s-109.33,30.37-139.7,0c0,0-9.12-15.18,42.52-15.18,0,0-45.56-6.08-45.56-18.22S75.91,59.05,75.91,59.05,51.62,53,57.69,43.86s36.44-9.11,36.44-9.11,39.49-21.26,39.49-30.37,42.52-3,48.59,27.34c0,0,79,6.07,79,27.33S230.8,80.31,230.8,80.31s48.6,6.07,39.49,18.22S188.29,122.83,170.06,107.64Z"/></g></g></svg>